<svg width="24" height="24" xmlns="http://www.w3.org/2000/svg">

 <g>
  <title>background</title>
  <rect fill="none" id="canvas_background" height="402" width="582" y="-1" x="-1"/>
 </g>
 <g>
  <title>Layer 1</title>
  <path stroke="null" fill="#1ab0ce" id="search" d="m23.247471,20.183865l-5.203329,-5.168758c0.975624,-1.507554 1.517638,-3.230474 1.517638,-5.168758c0,-5.384123 -4.336107,-9.691421 -9.756242,-9.691421s-9.756242,4.307298 -9.756242,9.691421s4.336107,9.691421 9.756242,9.691421c1.951248,0 3.685691,-0.538412 5.203329,-1.507554l5.203329,5.168758c0.433611,0.43073 0.975624,0.646095 1.517638,0.646095c1.19243,0 2.168054,-0.969142 2.168054,-2.153649c0,-0.646095 -0.216805,-1.184507 -0.650416,-1.507554zm-18.862067,-10.337516c0,-3.015109 2.384859,-5.384123 5.420134,-5.384123s5.420134,2.369014 5.420134,5.384123s-2.384859,5.384123 -5.420134,5.384123s-5.420134,-2.369014 -5.420134,-5.384123z"/>
 </g>
</svg>