<svg width="22" height="22" viewBox="0 0 22 22" version="1.1" xmlns="http://www.w3.org/2000/svg" xmlns:xlink="http://www.w3.org/1999/xlink">
<title>phone</title>
<desc>Created using Figma</desc>
<g id="Canvas" transform="translate(-798 -990)">
<g id="phone">
<g id="Shape">
<use xlink:href="#path0_stroke" transform="translate(799 991)" fill="#3A4047"/>
</g>
</g>
</g>
<defs>
<path id="path0_stroke" d="M 19.8881 14.9201L 18.8884 14.8953C 18.8882 14.9036 18.8881 14.9118 18.8881 14.9201L 19.8881 14.9201ZM 19.8881 17.9201L 18.8881 17.9201L 18.8881 17.9242L 19.8881 17.9201ZM 17.7081 19.9201L 17.6001 20.9142C 17.6061 20.9149 17.6121 20.9155 17.6181 20.916L 17.7081 19.9201ZM 9.07812 16.8501L 9.62225 16.011L 9.61444 16.0061L 9.07812 16.8501ZM 3.07812 10.8501L 3.92217 10.3138L 3.9174 10.3064L 3.07812 10.8501ZM 0.0081238 2.1801L -0.987818 2.2701C -0.987348 2.2753 -0.986837 2.2805 -0.986285 2.2857L 0.0081238 2.1801ZM 0.52289 0.651719L 1.26145 1.32591L 1.26145 1.32591L 0.52289 0.651719ZM 1.99812 9.83189e-05L 1.99812 -0.999902L 1.99718 -0.999901L 1.99812 9.83189e-05ZM 4.99812 9.83189e-05L 4.99812 1.00015L 5.00797 1.00005L 4.99812 9.83189e-05ZM 6.99812 1.7201L 7.98958 1.58934L 7.98828 1.58015L 6.99812 1.7201ZM 7.69812 4.5301L 6.76122 4.8797L 6.76207 4.88196L 7.69812 4.5301ZM 7.24812 6.6401L 7.95524 7.34722L 7.95918 7.34324L 7.24812 6.6401ZM 5.97812 7.9101L 5.27102 7.20299C 4.9527 7.5213 4.88632 8.01307 5.10883 8.40439L 5.97812 7.9101ZM 11.9781 13.9101L 11.4838 14.7794C 11.8752 15.0019 12.3669 14.9355 12.6852 14.6172L 11.9781 13.9101ZM 13.2481 12.6401L 12.545 11.929L 12.541 11.933L 13.2481 12.6401ZM 15.3581 12.1901L 15.0063 13.1262L 15.0085 13.127L 15.3581 12.1901ZM 18.1681 12.8901L 18.3078 11.8999L 18.2989 11.8987L 18.1681 12.8901ZM 18.8881 14.9201L 18.8881 17.9201L 20.8881 17.9201L 20.8881 14.9201L 18.8881 14.9201ZM 18.8881 17.9242C 18.8893 18.2057 18.7717 18.4747 18.5642 18.6651L 19.9162 20.1388C 20.5387 19.5678 20.8915 18.7608 20.8881 17.916L 18.8881 17.9242ZM 18.5642 18.6651C 18.3567 18.8554 18.0786 18.9495 17.7981 18.9242L 17.6181 20.916C 18.4594 20.9921 19.2938 20.7099 19.9162 20.1388L 18.5642 18.6651ZM 17.8161 18.926C 14.8945 18.6085 12.088 17.6101 9.62222 16.0111L 8.53402 17.6891C 11.2622 19.4584 14.3674 20.563 17.6001 20.9142L 17.8161 18.926ZM 9.61444 16.0061C 7.32218 14.5495 5.37874 12.606 3.92214 10.3138L 2.23411 11.3864C 3.84818 13.9265 6.00172 16.08 8.5418 17.6941L 9.61444 16.0061ZM 3.9174 10.3064C 2.31278 7.82943 1.31419 5.0093 1.00253 2.0745L -0.986285 2.2857C -0.641456 5.53288 0.463424 8.65318 2.23884 11.3938L 3.9174 10.3064ZM 1.00407 2.0901C 0.978802 1.81053 1.0722 1.53322 1.26145 1.32591L -0.215669 -0.0224697C -0.78341 0.599477 -1.06361 1.43141 -0.987818 2.2701L 1.00407 2.0901ZM 1.26145 1.32591C 1.4507 1.11859 1.71836 1.00036 1.99907 1.0001L 1.99718 -0.999901C 1.15507 -0.999108 0.352071 -0.644417 -0.215669 -0.0224696L 1.26145 1.32591ZM 1.99812 1.0001L 4.99812 1.0001L 4.99812 -0.999902L 1.99812 -0.999902L 1.99812 1.0001ZM 5.00797 1.00005C 5.5099 0.99511 5.93772 1.36303 6.00797 1.86005L 7.98828 1.58015C 7.77753 0.0890981 6.49408 -1.01467 4.98828 -0.999853L 5.00797 1.00005ZM 6.00671 1.85086C 6.14319 2.88569 6.39631 3.90177 6.76123 4.8797L 8.63502 4.18049C 8.32284 3.34388 8.1063 2.47464 7.98954 1.58934L 6.00671 1.85086ZM 6.76207 4.88196C 6.89944 5.2474 6.81158 5.65936 6.53707 5.93696L 7.95918 7.34324C 8.7827 6.51045 9.04628 5.27455 8.63418 4.17824L 6.76207 4.88196ZM 6.54102 5.93299L 5.27102 7.20299L 6.68523 8.6172L 7.95523 7.3472L 6.54102 5.93299ZM 5.10883 8.40439C 6.62136 11.0644 8.82381 13.2669 11.4838 14.7794L 12.4724 13.0408C 10.1253 11.7062 8.182 9.76288 6.84742 7.4158L 5.10883 8.40439ZM 12.6852 14.6172L 13.9552 13.3472L 12.541 11.933L 11.271 13.203L 12.6852 14.6172ZM 13.9513 13.3512C 14.2289 13.0766 14.6408 12.9888 15.0063 13.1262L 15.71 11.254C 14.6137 10.8419 13.3778 11.1055 12.545 11.929L 13.9513 13.3512ZM 15.0085 13.127C 15.9865 13.4919 17.0025 13.745 18.0374 13.8815L 18.2989 11.8987C 17.4136 11.7819 16.5443 11.5654 15.7077 11.2532L 15.0085 13.127ZM 18.0284 13.8803C 18.5312 13.9512 18.901 14.3877 18.8884 14.8953L 20.8878 14.9449C 20.9256 13.4221 19.8162 12.1127 18.3078 11.8999L 18.0284 13.8803Z"/>
</defs>
</svg>
